<svg width="128" height="30" viewBox="0 0 128 30" fill="none" xmlns="http://www.w3.org/2000/svg">
<path d="M18.2109 23.9844C18.9219 24.5951 19.3366 25.4062 19.4551 26.418C19.4551 26.4727 19.2363 26.7324 18.7988 27.1973C18.3704 27.6621 17.8099 28.0905 17.1172 28.4824C16.4245 28.8835 15.6452 29.084 14.7793 29.084C14.3874 29.084 14.0228 29.0384 13.6855 28.9473C13.5762 28.929 13.4805 28.9062 13.3984 28.8789C13.3164 28.8607 13.248 28.8424 13.1934 28.8242C11.7897 28.3867 10.8737 26.5228 10.4453 23.2324C10.1354 23.2598 9.80273 23.2734 9.44727 23.2734C6.35742 23.2734 4.16081 22.3255 2.85742 20.4297C1.56315 18.5339 0.916016 15.9453 0.916016 12.6641C0.916016 5.42708 3.75977 1.80859 9.44727 1.80859C11.6986 1.80859 13.4531 2.27799 14.7109 3.2168C15.9779 4.14648 16.8483 5.4043 17.3223 6.99023C17.8053 8.56706 18.0469 10.4583 18.0469 12.6641C18.0469 17.2578 16.8164 20.3659 14.3555 21.9883C14.7565 22.9089 15.3034 23.8568 15.9961 24.832L16.1602 24.8047L16.1875 24.832L18.2109 23.9844ZM7.49219 18.4883C7.61979 18.625 7.94336 18.7298 8.46289 18.8027C8.98242 18.8757 9.53841 18.9121 10.1309 18.9121C10.8783 18.9121 11.3066 18.8711 11.416 18.7891C11.6439 18.388 11.8171 17.6908 11.9355 16.6973C12.054 15.6947 12.1133 14.5736 12.1133 13.334C12.1133 12.0306 12.0495 10.8229 11.9219 9.71094C11.8034 8.58984 11.6348 7.80599 11.416 7.35938C11.1882 7.17708 10.8509 7.04036 10.4043 6.94922C9.95768 6.85807 9.46549 6.80794 8.92773 6.79883C8.61784 6.79883 8.33529 6.81706 8.08008 6.85352C7.83398 6.88086 7.65625 6.92643 7.54688 6.99023C7.28255 7.44596 7.08659 8.10677 6.95898 8.97266C6.84049 9.82943 6.78125 10.8092 6.78125 11.9121C6.78125 13.1608 6.84961 14.4049 6.98633 15.6445C7.12305 16.8841 7.29167 17.832 7.49219 18.4883ZM19.7695 11.2148C19.6146 10.5495 19.5143 10.0618 19.4688 9.75195C19.4232 9.44206 19.4004 8.97266 19.4004 8.34375C19.9382 7.83333 20.5169 7.45052 21.1367 7.19531C21.7565 6.93099 22.4538 6.79883 23.2285 6.79883C25.5801 6.79883 26.7559 7.97917 26.7559 10.3398C26.7559 10.9688 26.6966 11.6979 26.5781 12.5273C26.4688 13.3568 26.3092 14.4004 26.0996 15.6582C26.0723 15.8223 25.9993 16.2643 25.8809 16.9844C25.7624 17.7044 25.6803 18.306 25.6348 18.7891C25.7897 18.9531 25.9811 19.0671 26.209 19.1309C26.3184 19.1309 26.569 18.9076 26.9609 18.4609C27.362 18.0052 27.7904 17.4538 28.2461 16.8066C28.7018 16.1595 29.0755 15.5625 29.3672 15.0156C29.4401 13.7122 29.5404 12.5137 29.668 11.4199L28.2324 11.1328C28.1139 10.6771 28.0319 10.276 27.9863 9.92969C27.9408 9.58333 27.918 9.21419 27.918 8.82227L27.9316 8.43945C28.2598 8.02018 28.752 7.64193 29.4082 7.30469C30.0645 6.96745 30.8164 6.79883 31.6641 6.79883C34.0156 6.79883 35.1914 7.97917 35.1914 10.3398C35.1914 11.2969 35.0319 12.5592 34.7129 14.127C34.3939 15.6855 34.0202 17.2624 33.5918 18.8574L35.1641 18.1738C35.4284 18.4564 35.6608 18.8027 35.8613 19.2129C36.071 19.6139 36.2031 20.0788 36.2578 20.6074C36.1302 20.8809 35.8522 21.2318 35.4238 21.6602C34.9954 22.0794 34.4714 22.4531 33.8516 22.7812C33.2318 23.1094 32.5846 23.2734 31.9102 23.2734C31.1536 23.2734 30.5703 23.0501 30.1602 22.6035C29.7591 22.1478 29.5586 21.569 29.5586 20.8672C29.5586 20.6849 29.6042 20.3112 29.6953 19.7461C29.7956 19.181 29.8776 18.7891 29.9414 18.5703L29.5586 18.4473C29.1029 20.0423 28.474 21.2454 27.6719 22.0566C26.8789 22.8678 25.972 23.2734 24.9512 23.2734C23.4837 23.2734 22.4492 22.7904 21.8477 21.8242C21.2461 20.849 20.9453 19.6413 20.9453 18.2012C20.9453 15.4941 21.0365 13.2337 21.2188 11.4199L19.7695 11.2148ZM38.0215 3.38086C38.0215 2.57878 38.2812 1.92708 38.8008 1.42578C39.3294 0.924479 40.168 0.673828 41.3164 0.673828C42.4648 0.673828 43.2988 0.924479 43.8184 1.42578C44.347 1.92708 44.6113 2.57878 44.6113 3.38086C44.6113 3.83659 44.4518 4.25586 44.1328 4.63867C43.8229 5.02148 43.4128 5.32682 42.9023 5.55469C42.3919 5.77344 41.8633 5.88281 41.3164 5.88281C40.724 5.88281 40.1725 5.75521 39.6621 5.5C39.1608 5.23568 38.7598 4.90755 38.459 4.51562C38.1673 4.1237 38.0215 3.74544 38.0215 3.38086ZM37.3516 11.2012C37.2331 10.7546 37.151 10.349 37.1055 9.98438C37.0599 9.61068 37.0371 9.22331 37.0371 8.82227L37.0508 8.43945C37.2422 8.19336 37.5384 7.94727 37.9395 7.70117C38.3496 7.44596 38.8236 7.23177 39.3613 7.05859C39.9082 6.88542 40.4733 6.79883 41.0566 6.79883C42.3327 6.79883 43.2396 7.08594 43.7773 7.66016C44.3151 8.23438 44.584 9.1276 44.584 10.3398C44.584 11.069 44.4792 12.0215 44.2695 13.1973C44.069 14.373 43.8229 15.5169 43.5312 16.6289C43.2487 17.7318 43.0026 18.5202 42.793 18.9941L42.8203 19.0215L44.8438 18.2832C45.2083 18.5931 45.4818 18.9349 45.6641 19.3086C45.8555 19.6823 45.9785 20.1152 46.0332 20.6074C46.0332 20.6712 45.8327 20.9355 45.4316 21.4004C45.0306 21.8561 44.4974 22.2845 43.832 22.6855C43.1758 23.0775 42.4147 23.2734 41.5488 23.2734C40.6738 23.2734 39.9629 23.0365 39.416 22.5625C38.8783 22.0885 38.6094 21.2773 38.6094 20.1289C38.6094 18.7891 38.6458 17.3672 38.7188 15.8633C38.7917 14.3594 38.9056 12.901 39.0605 11.4883L37.3516 11.2012ZM46.9219 19.377C46.9219 18.7116 47.0859 18.0872 47.4141 17.5039C47.7513 16.9206 48.2708 16.4284 48.9727 16.0273C49.2279 16.0273 49.5286 16.1094 49.875 16.2734C50.2305 16.4375 50.6497 16.679 51.1328 16.998L53.6621 12.2129L48.1797 13.1016C47.8151 12.7005 47.5234 12.2949 47.3047 11.8848C47.0951 11.4655 46.9902 10.9642 46.9902 10.3809C46.9902 10.0254 47.0358 9.65169 47.127 9.25977C47.3184 8.47591 47.6602 7.87891 48.1523 7.46875C48.6445 7.04948 49.2552 6.83984 49.9844 6.83984C50.2943 6.83984 50.5951 6.87174 50.8867 6.93555C51.8529 7.12695 52.7461 7.3776 53.5664 7.6875C54.3958 7.98828 55.0339 8.29362 55.4805 8.60352C55.6719 8.32096 55.9453 8.02474 56.3008 7.71484C56.6562 7.39583 57.0527 7.12695 57.4902 6.9082C57.9368 6.68034 58.3743 6.55729 58.8027 6.53906C59.2129 6.69401 59.5684 6.99023 59.8691 7.42773C60.179 7.86523 60.416 8.38021 60.5801 8.97266C60.7441 9.5651 60.8262 10.1667 60.8262 10.7773C60.8262 11.3516 60.7487 11.8848 60.5938 12.377C60.4479 12.4954 60.2611 12.5866 60.0332 12.6504C59.8145 12.7051 59.5775 12.7324 59.3223 12.7324C59.14 12.7324 58.9668 12.7188 58.8027 12.6914C58.4108 13.3021 57.6999 14.1953 56.6699 15.3711C55.6491 16.5469 54.7923 17.4857 54.0996 18.1875L57.1348 18.5293L58.502 15.3301L60.5254 15.7129C60.6439 16.0319 60.7396 16.4512 60.8125 16.9707C60.8945 17.4811 60.9355 18.0189 60.9355 18.584C60.9355 19.2767 60.8672 19.9284 60.7305 20.5391C60.5938 21.1406 60.3796 21.6419 60.0879 22.043C59.4772 22.8633 58.6296 23.2734 57.5449 23.2734C56.7793 23.2734 55.9408 23.0456 55.0293 22.5898C54.1178 22.125 53.2747 21.5781 52.5 20.9492C52.2083 21.4505 51.9303 21.8561 51.666 22.166C51.4017 22.4759 51.0827 22.7311 50.709 22.9316C50.3353 23.123 49.8796 23.237 49.3418 23.2734C48.9316 23.1549 48.5397 22.8997 48.166 22.5078C47.7923 22.1068 47.4915 21.6328 47.2637 21.0859C47.0358 20.5299 46.9219 19.9603 46.9219 19.377ZM62.4258 19.377C62.4258 18.7116 62.5898 18.0872 62.918 17.5039C63.2552 16.9206 63.7747 16.4284 64.4766 16.0273C64.7318 16.0273 65.0326 16.1094 65.3789 16.2734C65.7344 16.4375 66.1536 16.679 66.6367 16.998L69.166 12.2129L63.6836 13.1016C63.319 12.7005 63.0273 12.2949 62.8086 11.8848C62.599 11.4655 62.4941 10.9642 62.4941 10.3809C62.4941 10.0254 62.5397 9.65169 62.6309 9.25977C62.8223 8.47591 63.1641 7.87891 63.6562 7.46875C64.1484 7.04948 64.7591 6.83984 65.4883 6.83984C65.7982 6.83984 66.099 6.87174 66.3906 6.93555C67.3568 7.12695 68.25 7.3776 69.0703 7.6875C69.8997 7.98828 70.5378 8.29362 70.9844 8.60352C71.1758 8.32096 71.4492 8.02474 71.8047 7.71484C72.1602 7.39583 72.5566 7.12695 72.9941 6.9082C73.4408 6.68034 73.8783 6.55729 74.3066 6.53906C74.7168 6.69401 75.0723 6.99023 75.373 7.42773C75.6829 7.86523 75.9199 8.38021 76.084 8.97266C76.248 9.5651 76.3301 10.1667 76.3301 10.7773C76.3301 11.3516 76.2526 11.8848 76.0977 12.377C75.9518 12.4954 75.765 12.5866 75.5371 12.6504C75.3184 12.7051 75.0814 12.7324 74.8262 12.7324C74.6439 12.7324 74.4707 12.7188 74.3066 12.6914C73.9147 13.3021 73.2038 14.1953 72.1738 15.3711C71.153 16.5469 70.2962 17.4857 69.6035 18.1875L72.6387 18.5293L74.0059 15.3301L76.0293 15.7129C76.1478 16.0319 76.2435 16.4512 76.3164 16.9707C76.3984 17.4811 76.4395 18.0189 76.4395 18.584C76.4395 19.2767 76.3711 19.9284 76.2344 20.5391C76.0977 21.1406 75.8835 21.6419 75.5918 22.043C74.9811 22.8633 74.1335 23.2734 73.0488 23.2734C72.2832 23.2734 71.4447 23.0456 70.5332 22.5898C69.6217 22.125 68.7786 21.5781 68.0039 20.9492C67.7122 21.4505 67.4342 21.8561 67.1699 22.166C66.9056 22.4759 66.5866 22.7311 66.2129 22.9316C65.8392 23.123 65.3835 23.237 64.8457 23.2734C64.4355 23.1549 64.0436 22.8997 63.6699 22.5078C63.2962 22.1068 62.9954 21.6328 62.7676 21.0859C62.5397 20.5299 62.4258 19.9603 62.4258 19.377ZM78.8184 3.38086C78.8184 2.57878 79.0781 1.92708 79.5977 1.42578C80.1263 0.924479 80.9648 0.673828 82.1133 0.673828C83.2617 0.673828 84.0957 0.924479 84.6152 1.42578C85.1439 1.92708 85.4082 2.57878 85.4082 3.38086C85.4082 3.83659 85.2487 4.25586 84.9297 4.63867C84.6198 5.02148 84.2096 5.32682 83.6992 5.55469C83.1888 5.77344 82.6602 5.88281 82.1133 5.88281C81.5208 5.88281 80.9694 5.75521 80.459 5.5C79.9577 5.23568 79.5566 4.90755 79.2559 4.51562C78.9642 4.1237 78.8184 3.74544 78.8184 3.38086ZM78.1484 11.2012C78.0299 10.7546 77.9479 10.349 77.9023 9.98438C77.8568 9.61068 77.834 9.22331 77.834 8.82227L77.8477 8.43945C78.0391 8.19336 78.3353 7.94727 78.7363 7.70117C79.1465 7.44596 79.6204 7.23177 80.1582 7.05859C80.7051 6.88542 81.2702 6.79883 81.8535 6.79883C83.1296 6.79883 84.0365 7.08594 84.5742 7.66016C85.112 8.23438 85.3809 9.1276 85.3809 10.3398C85.3809 11.069 85.276 12.0215 85.0664 13.1973C84.8659 14.373 84.6198 15.5169 84.3281 16.6289C84.0456 17.7318 83.7995 18.5202 83.5898 18.9941L83.6172 19.0215L85.6406 18.2832C86.0052 18.5931 86.2786 18.9349 86.4609 19.3086C86.6523 19.6823 86.7754 20.1152 86.8301 20.6074C86.8301 20.6712 86.6296 20.9355 86.2285 21.4004C85.8275 21.8561 85.2943 22.2845 84.6289 22.6855C83.9727 23.0775 83.2116 23.2734 82.3457 23.2734C81.4707 23.2734 80.7598 23.0365 80.2129 22.5625C79.6751 22.0885 79.4062 21.2773 79.4062 20.1289C79.4062 18.7891 79.4427 17.3672 79.5156 15.8633C79.5885 14.3594 79.7025 12.901 79.8574 11.4883L78.1484 11.2012ZM87.8965 15.0566C87.8965 13.4798 88.1608 12.0716 88.6895 10.832C89.2181 9.59245 90.0339 8.61263 91.1367 7.89258C92.2487 7.16341 93.6341 6.79883 95.293 6.79883C95.8581 6.79883 96.5052 6.83529 97.2344 6.9082C97.9727 6.97201 98.679 7.07227 99.3535 7.20898L99.627 7.40039C100.037 7.68294 100.338 7.91081 100.529 8.08398C100.73 8.24805 100.939 8.48047 101.158 8.78125C101.158 9.27344 101.09 9.95247 100.953 10.8184C100.826 11.6751 100.661 12.4727 100.461 13.2109C100.26 13.9492 100.069 14.4232 99.8867 14.6328C99.5859 14.7878 99.0983 14.8652 98.4238 14.8652C98.0957 14.8652 97.7858 14.8424 97.4941 14.7969C97.2116 14.7422 96.9974 14.6738 96.8516 14.5918L96.5645 12.0625C96.4277 11.9076 96.1133 11.7845 95.6211 11.6934C95.138 11.5931 94.6914 11.543 94.2812 11.543C94.1536 11.543 94.0352 11.5521 93.9258 11.5703C93.7161 11.9987 93.5566 12.5456 93.4473 13.2109C93.3379 13.8763 93.2832 14.5553 93.2832 15.248C93.2832 16.2507 93.4473 17.1029 93.7754 17.8047C94.1035 18.4974 94.7734 18.8438 95.7852 18.8438C96.2865 18.8438 96.7786 18.7617 97.2617 18.5977C97.7539 18.4336 98.3737 18.1829 99.1211 17.8457C99.431 17.6999 99.6634 17.5951 99.8184 17.5312C100.183 17.8958 100.47 18.2786 100.68 18.6797C100.889 19.0807 101.026 19.5957 101.09 20.2246C100.507 20.9082 99.6862 21.5872 98.6289 22.2617C97.5807 22.9362 96.3548 23.2734 94.9512 23.2734C93.4564 23.2734 92.1758 22.9134 91.1094 22.1934C90.0521 21.4642 89.25 20.4798 88.7031 19.2402C88.1654 17.9915 87.8965 16.597 87.8965 15.0566ZM107.201 13.9902C107.739 13.9902 108.331 14.0449 108.979 14.1543C109.635 14.2637 110.236 14.3958 110.783 14.5508V14.127C110.783 13.8444 110.774 13.5299 110.756 13.1836C110.747 12.8372 110.729 12.6094 110.701 12.5C110.619 12.3451 110.382 12.1855 109.99 12.0215C109.607 11.8574 108.979 11.7754 108.104 11.7754C107.566 11.7754 107.01 11.8438 106.436 11.9805C105.87 12.1081 105.242 12.2812 104.549 12.5C104.175 11.8802 103.874 11.2923 103.646 10.7363C103.428 10.1712 103.318 9.60612 103.318 9.04102C103.318 8.86784 103.332 8.69466 103.359 8.52148C104.836 7.37305 106.745 6.79883 109.088 6.79883C110.382 6.79883 111.531 6.94466 112.533 7.23633C113.536 7.52799 114.361 8.0931 115.008 8.93164C115.655 9.77018 115.979 10.9596 115.979 12.5C115.979 14.0039 115.801 15.4622 115.445 16.875C115.099 18.2786 114.921 18.9941 114.912 19.0215L116.895 18.1738C117.159 18.4564 117.391 18.8027 117.592 19.2129C117.801 19.6139 117.934 20.0788 117.988 20.6074C117.861 20.8809 117.583 21.2318 117.154 21.6602C116.726 22.0794 116.202 22.4531 115.582 22.7812C114.962 23.1094 114.315 23.2734 113.641 23.2734C112.884 23.2734 112.31 23.0501 111.918 22.6035C111.535 22.1569 111.344 21.5781 111.344 20.8672C111.344 20.4661 111.403 20.0605 111.521 19.6504L111.111 19.5273C110.856 20.9674 110.314 21.9518 109.484 22.4805C108.655 23.0091 107.739 23.2734 106.736 23.2734C106.08 23.2734 105.447 23.0911 104.836 22.7266C104.225 22.3529 103.729 21.8151 103.346 21.1133C102.963 20.4023 102.771 19.5729 102.771 18.625C102.771 17.112 103.15 15.9635 103.906 15.1797C104.663 14.3867 105.761 13.9902 107.201 13.9902ZM108.76 19.1992C108.988 19.1536 109.257 19.026 109.566 18.8164C109.885 18.6068 110.168 18.3561 110.414 18.0645C110.66 17.7728 110.806 17.4948 110.852 17.2305L110.77 16.9023C110.286 16.8385 109.771 16.8066 109.225 16.8066C108.76 16.8066 108.441 16.8431 108.268 16.916C107.976 17.2441 107.83 17.6087 107.83 18.0098C107.83 18.3014 107.903 18.5658 108.049 18.8027C108.204 19.0397 108.441 19.1719 108.76 19.1992ZM118.303 5.11719C118.166 4.5612 118.075 4.10091 118.029 3.73633C117.984 3.36263 117.965 2.93424 117.975 2.45117C118.166 2.20508 118.462 1.95898 118.863 1.71289C119.273 1.45768 119.747 1.24349 120.285 1.07031C120.832 0.897135 121.397 0.810547 121.98 0.810547C123.12 0.810547 123.995 1.09766 124.605 1.67188C125.216 2.24609 125.521 3.09375 125.521 4.21484C125.521 5.01693 125.453 6.30664 125.316 8.08398C125.18 9.86133 124.984 11.7526 124.729 13.7578C124.473 15.7539 124.182 17.4993 123.854 18.9941L123.881 19.0215L125.904 18.1738C126.615 18.7845 127.03 19.5957 127.148 20.6074C127.148 20.6712 126.943 20.9355 126.533 21.4004C126.123 21.8561 125.581 22.2845 124.906 22.6855C124.241 23.0775 123.475 23.2734 122.609 23.2734C121.707 23.2734 120.973 23.0228 120.408 22.5215C119.852 22.0202 119.588 21.1634 119.615 19.9512L119.643 17.4902C119.652 15.1569 119.674 13.056 119.711 11.1875C119.757 9.31901 119.848 7.39128 119.984 5.4043L118.303 5.11719Z" fill="#FAFAFA"/>
</svg>
